<mxfile host="app.diagrams.net" modified="2024-06-23T16:46:12.195Z" agent="Mozilla/5.0 (Windows NT 10.0; Win64; x64) AppleWebKit/537.36 (KHTML, like Gecko) Chrome/126.0.0.0 Safari/537.36" version="24.6.2" etag="R9NaGXeYi-vouvdD3SiA" type="github">
  <diagram name="페이지-1" id="QlSWdKTUOOUS0F1_vccS">
    <mxGraphModel>
      <root>
        <mxCell id="0" />
        <mxCell id="1" parent="0" />
      </root>
    </mxGraphModel>
  </diagram>
</mxfile>
